# xmcd
#
# Track frame offsets:
#	150
#	12952
#	33487
#	46614
#	60749
#	84417
#	102677
#	116912
#	139027
#	157788
#	178489
#	198142
#	213407
#
# Disc length: 3376 seconds
#
# Revision: 1
# Processed by: cddbd v1.5.2PL0 Copyright (c) Steve Scherf et al.
# Submitted via: audiograbber 1.82.02
#
DISCID=af0d2e0d
DTITLE=Turzi - A
DYEAR=2007
DGENRE=Rock
TTITLE0=A
TTITLE1=Alpes
TTITLE2=Animal Signal
TTITLE3=Are You Thinking About Jesus?
TTITLE4=Afghanistan
TTITLE5=Acid Taste
TTITLE6=A notre pere
TTITLE7=Aigle
TTITLE8=Amadeus
TTITLE9=Attila Blues
TTITLE10=Authority 17
TTITLE11=Allah Delon (aka Tema per le Goff)
TTITLE12=Axis of Good
EXTD=
EXTT0=
EXTT1=
EXTT2=
EXTT3=
EXTT4=
EXTT5=
EXTT6=
EXTT7=
EXTT8=
EXTT9=
EXTT10=
EXTT11=
EXTT12=
PLAYORDER=
